<svg height="21" viewBox="0 0 181 21" width="181" xmlns="http://www.w3.org/2000/svg"><path d="m4.41645324 8.9199302c0 1.5881827.2393152 7.8974016-.30458298 9.4638284-.2393152.7179456-.7179456 1.2183319-1.196576 1.3706234-.2393152-.6744338-.9572608-1.1530642-1.69696233-1.1530642-.69618967 0-1.21833193.3916067-1.21833193 1.0442846 0 .9572608 1.08779637 1.2618437 1.47940306 1.2618437 1.65345047 0 3.15460946-1.4141352 4.04660248-2.9588061.65267782-1.1095523.80496931-2.1973486.80496931-3.6332398 0-.5003864.08702371-2.6324672.08702371-5.39547v-1.00077266c0-2.6324672.04351185-5.4172259.06526778-5.76532074.02175593-.45687447.21755927-.63092189.80496931-.63092189h1.08779636c.13053557 0 .17404742-.04351185.17404742-.17404742v-.54389818c0-.08702371-.04351185-.13053556-.17404742-.13053556-.32633891 0-1.08779636.06526778-2.93705018.06526778-2.0668131 0-2.87178241-.06526778-3.11109761-.06526778-.13053556 0-.15229149.04351185-.15229149.15229149v.58741004c0 .0870237.06526778.10877963.15229149.10877963h.9572608c.84848117 0 1.04428451.26107113 1.06604044.73970153.06526778.93550487.06526778 4.78630401.06526778 5.13439884zm9.65963176-7.484039 3.872555.08702371c.5874101.02175593 1.196576.28282706 1.6534505.58741004.5221423.32633891 2.1320809 2.393152 2.1755927 2.48017571.021756.04351186.1087797.10877964.1740475.06526778l.3263389-.17404741c.0870237-.04351186.0870237-.10877964.0652677-.19580335l-1.1095522-3.5027043c-.021756-.06526778-.0652678-.10877963-.1740475-.10877963-.1087796 0-.5221422.04351185-.8702371.04351185-2.1538368 0-4.3076736.02175593-6.4615104.02175593h-.9572608c-1.4358912 0-2.1973486-.06526778-2.675979-.06526778-.10877967 0-.15229152.04351185-.15229152.10877963v.58741004c0 .13053556.06526782.15229149.17404742.15229149h.7832134c.8049693 0 1.0225286.15229149 1.1095523.84848117.0217559.21755927.0652678 2.93705018.0652678 4.74279215v7.28823567c0 .8049693-.0870238.9572608-1.0877964.9572608h-.8702371c-.15229149 0-.21755927.0217559-.21755927.1087796v.5874101c0 .1087796.06526778.1522914.19580337.1522914.1958033 0 .4786304-.0217559.9355048-.0435118.4351186 0 1.0442846-.0217559 1.8492539-.0217559 3.3939246 0 5.5042496.0217559 6.8096052.0217559 1.3053557.0217559 1.7839861.0435118 1.8927657.0435118.2610711 0 .4133626-.1305355.4786304-.3263389l1.1530641-3.1981213c.0652678-.1740474.0652678-.2393152-.0435118-.304583l-.3480949-.1958033c-.1305355-.0652678-.1958033.0217559-.2610711.1305356-.304583.5003863-1.5229149 2.0668131-1.783986 2.2843723-.5656541.4786304-1.5229149.7179456-1.8927657.7614575-.4568745.0435118-1.5446708.0652678-1.9145216.0652678-.5438982 0-1.1748201-.0652678-1.6099386-.1522915-.6744338-.1305356-1.2183319-.5656541-1.2400879-1.6969624 0-.4351185-.0435118-2.5454435-.0435118-3.72026353v-1.34886749c.3480948 0 1.8492538 0 2.8717824.10877963.5656541.06526779.8049693.3916067.9355048.84848117.0652678.2393152.1958034.73970152.2393152 1.02252862.021756.1522915.0652678.2175592.1740475.1958033l.4786304-.0652678c.0870237-.0217559.1305355-.0652678.1305355-.1740474-.0435118-.45687447-.1305355-1.50115898-.1305355-2.26261643 0-.32633891 0-2.11032495.0652677-2.48017572.021756-.0870237-.0217559-.17404741-.1305355-.17404741l-.5438982-.02175593c-.0870237 0-.1522915.04351185-.1522915.15229149-.0217559.41336262-.1087796.84848117-.1740474 1.06604044-.1958034.67443374-.3698508.84848116-1.0007727.9572608-.2610711.04351185-2.5889553.13053556-2.7630027.13053556zm16.1864099 15.0333458c2.8717824 0 4.4382092-2.1973487 4.4382092-4.7645481 0-1.4358912-.3916067-2.28437238-.9572608-2.95880612-.7832134-.9572608-2.0015454-1.32711157-3.5027043-1.80574197-.6309219-.19580334-1.8492539-.67443375-2.4801758-1.30535564-.5438981-.56565411-.6744337-1.28359971-.6744337-1.89276567 0-1.1095523.6961897-2.5454435 2.6324672-2.5454435 1.0225286 0 1.783986.30458298 2.3713961.93550488.891993.93550487 1.1748201 1.78398604 1.3488675 2.41490793.0217559.06526778.0652678.08702371.1305355.06526778l.2610712-.06526778c.0870237-.02175593.1087796-.06526778.1087796-.17404742-.0217559-.4786304-.304583-2.69773499-.304583-3.45919244 0-.19580335-.0652678-.36985077-.1740474-.36985077s-.1740474.04351186-.2828271.13053557l-.282827.26107112c-.1087796.10877964-.2175593.13053557-.4133626.02175593-.3698508-.17404742-1.3271116-.54389818-2.5671995-.54389818-1.17482 0-2.2626164.30458298-3.0458298 1.04428451-.6744337.63092189-1.3488675 1.69696233-1.3488675 2.7847587 0 1.4358912.3698508 2.45841978 1.0877964 3.17636538.9355049.97901673 2.5019316 1.52291491 3.1763654 1.76223011 1.7404742.60916597 3.3504128 1.43589118 3.3504128 3.67675168 0 1.9580335-1.6534505 2.7630028-2.9588061 2.7630028-1.196576 0-2.393152-.58741-3.0458298-1.6099386-.7179456-1.1095523-.7614575-1.8274979-.7832134-2.5236876 0-.1305355-.0435119-.1740474-.1305356-.1740474l-.3263389-.0217559c-.0870237 0-.1305356 0-.1522915.1305355-.0652678.6309219-.282827 3.3939247-.3698508 3.9378229-.0435118.2393152.0652678.3480948.1958034.3480948.1522915 0 .2610711-.0217559.3916067-.2610711.1305355-.2175593.2175593-.3698508.3480948-.3698508.1087797 0 .2393152.0652678.5003863.2610712.8702371.6744337 1.9362776 1.1313082 3.4591925 1.1313082zm11.9222481 0c2.8717825 0 4.4382092-2.1973487 4.4382092-4.7645481 0-1.4358912-.3916067-2.28437238-.9572608-2.95880612-.7832134-.9572608-2.0015453-1.32711157-3.5027043-1.80574197-.6309219-.19580334-1.8492538-.67443375-2.4801757-1.30535564-.5438982-.56565411-.6744337-1.28359971-.6744337-1.89276567 0-1.1095523.6961896-2.5454435 2.6324672-2.5454435 1.0225286 0 1.783986.30458298 2.371396.93550488.8919931.93550487 1.1748201 1.78398604 1.3488675 2.41490793.021756.06526778.0652678.08702371.1305356.06526778l.2610711-.06526778c.0870237-.02175593.1087797-.06526778.1087797-.17404742-.021756-.4786304-.304583-2.69773499-.304583-3.45919244 0-.19580335-.0652678-.36985077-.1740474-.36985077-.1087797 0-.1740475.04351186-.2828271.13053557l-.282827.26107112c-.1087797.10877964-.2175593.13053557-.4133627.02175593-.3698507-.17404742-1.3271115-.54389818-2.5671994-.54389818-1.1748201 0-2.2626164.30458298-3.0458298 1.04428451-.6744338.63092189-1.3488675 1.69696233-1.3488675 2.7847587 0 1.4358912.3698508 2.45841978 1.0877964 3.17636538.9355048.97901673 2.5019316 1.52291491 3.1763653 1.76223011 1.7404742.60916597 3.3504129 1.43589118 3.3504129 3.67675168 0 1.9580335-1.6534505 2.7630028-2.9588062 2.7630028-1.196576 0-2.393152-.58741-3.0458298-1.6099386-.7179456-1.1095523-.7614574-1.8274979-.7832134-2.5236876 0-.1305355-.0435118-.1740474-.1305355-.1740474l-.3263389-.0217559c-.0870237 0-.1305356 0-.1522915.1305355-.0652678.6309219-.2828271 3.3939247-.3698508 3.9378229-.0435118.2393152.0652678.3480948.1958034.3480948.1522914 0 .2610711-.0217559.3916066-.2610711.1305356-.2175593.2175593-.3698508.3480949-.3698508.1087796 0 .2393152.0652678.5003863.2610712.8702371.6744337 1.9362775 1.1313082 3.4591924 1.1313082zm8.6153473-7.91915757c0 1.15306415-.0652678 5.85234447-.1087797 6.17868337-.0870237.5656541-.5438982.6309219-.9790167.6309219h-1.2183319c-.1087797 0-.1740474.0435118-.1740474.1305355v.5874101c0 .0870237.0652677.1305355.1740474.1305355.2393152 0 1.17482-.0652677 3.2416331-.0652677 1.8927657 0 2.7630028.0652677 3.0240739.0652677.1305356 0 .1958034-.0435118.1958034-.1305355v-.5656541c0-.1087797-.0652678-.1522915-.1740474-.1522915h-.8919931c-.6961896 0-1.0225285-.1087797-1.0225285-.7832134 0-.2393152-.0652678-5.26493441-.0652678-5.48249369v-1.6752064c0-.26107113.0652678-5.06913106.0652678-5.28669033 0-.43511855.3263389-.60916597.7614574-.60916597h1.0225286c.1087796 0 .1740474-.04351185.1740474-.15229149v-.54389818c0-.08702371-.0435118-.15229149-.1522915-.15229149-.304583 0-1.0007726.06526778-2.9370502.06526778-2.0233012 0-3.1328535-.06526778-3.3939246-.06526778-.0870237 0-.1522915.04351185-.1522915.13053556v.58741004c0 .08702371.0652678.13053556.1740474.13053556h1.2618438c.8267252 0 1.0442845.21755927 1.0877964.73970153.0217559.32633891.0870237 4.24240583.0870237 4.76454808zm13.9020375 7.91915757c3.0675858 0 5.1779107-1.7622301 6.4832664-3.6549958.0652677-.1087797.0217559-.1522915-.0435119-.1958034l-.2828271-.2175592c-.0652677-.0652678-.1087796-.0435119-.1740474.0652677-1.0007726 1.4141353-2.9152942 2.7630028-5.373714 2.7630028-1.4576472 0-2.697735-.1740474-4.1771381-1.8274979-1.6969623-1.8710097-2.088569-4.32942951-2.088569-5.5912733-.0217559-3.17636538 1.5446709-6.63555783 5.4389818-6.63555783 1.7187183 0 2.8717824.73970153 3.7855314 1.67520641.9137489.93550487 1.3923793 1.97978938 1.6969623 2.69773498.0652678.17404742.1087797.19580335.2175593.17404742l.3263389-.08702371c.0870237-.02175592.1087796-.10877963.0870237-.21755927-.1087796-.60916596-.5438982-3.80728728-.5438982-4.2206499 0-.30458298-.0435118-.34809483-.2393152-.34809483-.1958033 0-.2393152 0-.282827.13053556l-.1740474.63092189c-.0435119.15229149-.1522915.17404742-.4351186 0-.7832134-.45687447-2.4149079-1.196576-4.3946973-1.196576-2.3713961 0-4.3294295 1.02252858-5.4389818 2.19734866-1.5664268 1.65345047-2.2191046 3.74201949-2.2191046 5.76532073 0 2.08856899.7614574 4.61225659 2.3278842 6.09165969 1.3053556 1.196576 2.9370502 2.0015453 5.5042496 2.0015453zm17.4700096-6.3744867h-5.3519581c-.2175592.5438982-1.4141353 3.8507991-1.5229149 4.3076736-.0217559.1522915-.0652678.3698507-.0652678.4786304 0 .304583.2610712.4786304.7397016.4786304h1.0225285c.1522915 0 .2175593.0435118.2175593.1522915v.5003863c0 .1522915-.0652678.1958033-.1740474.1958033-.304583 0-1.196576-.0652677-2.4801757-.0652677-1.5881827 0-2.0668131.0652677-2.3713961.0652677-.1087796 0-.1522915-.0435118-.1522915-.1740474v-.5221422c0-.1087797.0870237-.1522915.1740474-.1522915h.7614575c.6526778 0 .9572608-.304583 1.2618438-1.0007727.1522915-.3480948 1.7404742-4.37294137 2.3713961-6.1569274.1522914-.43511855 1.9145216-5.11264292 2.1103249-5.70005296.0652678-.21755927.1740474-.50038633.0217559-.73970153-.0652678-.08702371-.1522915-.19580334-.1522915-.28282705 0-.06526778.0435119-.15229149.1958034-.19580335.6091659-.13053556 1.5664267-.78321338 1.8057419-1.08779636.1087797-.10877964.1740475-.19580335.2828271-.19580335.1305356 0 .1740474.13053556.2393152.36985076.4133626 1.37062342 2.110325 6.24395114 2.5236876 7.63633049.5003863 1.69696233 1.9145216 5.74356485 2.2191046 6.37448675.3698507.7179456.9355048.9790167 1.479403.9790167h.7179456c.1305356 0 .1740474.0652678.1740474.1522915v.5438982c0 .1087796-.0652677.1522914-.2175592.1522914-.3916067 0-.8484812-.0652677-2.6107113-.0652677-1.805742 0-2.5671994.0652677-3.0675858.0652677-.1087796 0-.1740474-.0652677-.1740474-.1958033v-.5003863c0-.1305356.0652678-.1522915.1958034-.1522915h.5438981c.609166 0 .8049694-.2175593.6526779-.8267253-.1740475-.7832133-1.0660405-3.567972-1.3706235-4.4382091zm-5.069131-.78321341h4.8080599c-.1958033-.65267782-1.9580334-6.09165965-2.0668131-6.41799856-.0652678-.15229149-.1087796-.30458298-.1740474-.30458298-.0870237 0-.1740474.15229149-.2393152.32633891-.1087796.28282705-2.1755927 5.85234445-2.3278842 6.39624263zm12.8359971 1.97978941c-.0870237 0-.1522915 0-.1740474.1522915l-.3480949 4.1336262c-.0217559.2393152.0652678.3480948.304583.3480948.1522915 0 .2610711-.0217559.3916067-.2610711.1305356-.2175593.2175593-.3698508.3480948-.3698508.1087797 0 .2393152.0652678.5003864.2393152.9137489.609166 1.9362775.9355049 3.894311.9355049 2.8717824 0 4.764548-2.1538368 4.764548-4.80806 0-1.5229149-.3480948-2.48017568-1.196576-3.24163313-.891993-.80496931-1.7404741-1.34886749-2.7847587-1.65345048-1.0660404-.30458298-2.3061282-.82672523-2.8717824-1.41413527-.5438981-.54389818-.5656541-1.196576-.5656541-2.00154531 0-.56565411.6744338-1.97978939 2.3061283-1.97978939.9790168 0 1.6316946.30458298 2.1755928.91374895.7397015.78321338 1.1095522 1.63169455 1.3488674 2.26261644.0652678.15229149.1740475.19580334.2828271.15229149l.4786304-.15229149c.0652678-.02175593.1087796-.04351186.1087796-.13053557l-.3480948-3.72026357c-.0217559-.13053556-.0652678-.36985076-.2175593-.36985076-.1305355 0-.2393152.04351185-.3263389.13053556l-.282827.28282706c-.1305356.15229149-.2828271.19580334-.5003864.10877964-.4568744-.17404742-1.3053556-.43511855-2.8935383-.43511855-1.3271116 0-2.1538368.30458298-3.1328535 1.04428451-1.3053557.97901673-1.6316946 1.87100975-1.6316946 3.19812131 0 1.26184379.3263389 2.41490794 1.0877964 3.08934168 1.1095523.9572608 2.5019316 1.65345048 3.1546095 1.89276568 2.8282705 1.0660404 3.1763653 1.5881827 3.1763653 3.3939247 0 1.7187182-1.6752064 2.4149079-2.7194909 2.4149079s-2.1103249-.4786304-2.7412468-1.4794031c-.5221423-.8484811-.8267253-1.783986-.8702371-2.4584198 0-.1522914-.0652678-.1740474-.1522915-.1740474zm26.1941365 4.6992803c.10878.304583.239315.58741.543898.58741.391607 0 .543898-.4133626.652678-.6744337.435119-1.0442845 4.80806-12.85775308 5.069131-13.55394275.217559-.54389818.652678-.78321338 1.022529-.78321338h.413362c.152292 0 .152292-.06526779.152292-.15229149v-.54389819c0-.15229149-.021756-.19580334-.152292-.19580334-.174047 0-.804969.06526778-2.023301.06526778-1.348867 0-2.110325-.06526778-2.327884-.06526778-.152292 0-.174048.06526778-.174048.15229149v.54389818c0 .13053556.021756.19580335.152292.19580335h.630922c.413362 0 .696189.32633891.696189.56565411 0 1.17482007-1.892765 6.70082561-2.958806 9.65963172h-.130535l-3.002318-9.37680467c-.10878-.36985076.087023-.84848116.435118-.84848116h.652678c.130536 0 .152292-.06526779.152292-.15229149v-.54389819c0-.13053556-.021756-.19580334-.152292-.19580334-.217559 0-1.044284.06526778-2.871782.06526778-1.914522 0-2.675979-.06526778-2.871783-.06526778-.130535 0-.152291.06526778-.152291.15229149v.56565411c0 .13053556.021756.17404742.130535.17404742h.435119c.174047 0 .456874.15229149.652678.41336262.195803.26107112.413362.82672523.413362 1.37062342 0 .78321338-2.610711 7.70159829-2.871782 8.44129979h-.130536l-2.980562-9.48558431c-.130535-.43511854.087024-.73970152.435119-.73970152h.47863c.152292 0 .174048-.06526779.174048-.17404742v-.54389818c0-.10877964-.021756-.17404742-.174048-.17404742-.217559 0-1.109552.06526778-2.675979.06526778-2.24086 0-2.915294-.06526778-3.089341-.06526778-.152292 0-.174048.04351185-.174048.15229149v.56565411c0 .08702371.021756.17404742.130536.17404742h.543898c.282827 0 .674434.17404741.891993.78321338l4.895084 13.79325795c.087023.2610711.217559.4351185.456874.4351185.348095 0 .456875-.304583.543898-.5438982l4.133626-10.96498734h.130536zm13.445163-14.51120354 2.871782.08702371c.58741.02175592 1.196576.30458298 1.653451.58741003.500386.30458299 2.45842 2.26261644 2.567199 2.43666386.065268.10877964.174048.13053557.261071.08702371l.348095-.17404742c.10878-.06526778.10878-.10877963.065268-.21755927-.087024-.21755927-.804969-3.19812131-.891993-3.5027043-.021756-.06526778-.065268-.10877963-.174047-.10877963-.10878 0-.522143.04351185-.870237.04351185l-7.636331.02175593c-1.979789 0-2.741247-.06526778-3.219877-.06526778-.130536 0-.152292.08702371-.152292.15229149v.52214225c0 .15229149.021756.21755928.10878.21755928h.848481c.58741 0 .804969.15229149.891993.84848116.021756.21755927.065268 2.89353833.065268 4.6992803v7.28823567c0 .7614574-.087024.9137489-1.087796.9137489h-.652678c-.152292 0-.21756.0652678-.21756.1958034v.4568744c0 .1740475.043512.2393152.195804.2393152.195803 0 .47863-.0217559.935505-.0435118.435118 0 1.044284-.0217559 1.849254-.0217559 3.763775 0 6.069903.0217559 7.484039.0217559 1.392379.0217559 1.871009.0435118 1.979789.0435118.261071 0 .413363-.1305355.47863-.3263389l.979017-3.285145c.021756-.0652678 0-.1305356-.087024-.1740474l-.36985-.2175593c-.065268-.0435118-.130536-.0217559-.21756.0652678-.435118.5221423-1.65345 1.8710098-2.219104 2.3278842-.565654.4568745-1.218332.6744338-1.653451.7179456-.456874.0435119-1.370623.0652678-1.740474.0652678-1.087796 0-1.501159-.0652678-1.827498-.1958033-.282827-.1305356-.522142-.5221423-.522142-1.6534505 0-.3916067-.10878-2.5019317-.10878-3.67675173v-1.30535564c.957261 0 1.631695.04351186 2.219105.13053557.435118.06526778.957261.34809483 1.196576.76145745.130535.26107113.348095.76145745.435118 1.10955225.043512.1522915.087024.1958034.174048.1740475l.522142-.1087797c.10878-.0217559.195803-.0435118.174047-.1740474-.043511-.45687447-.130535-1.50115898-.130535-2.48017571 0-.76145745 0-1.89276567.065268-2.26261644.021756-.13053556-.065268-.15229149-.174048-.17404741l-.58741-.06526779c-.108779 0-.174047.04351186-.174047.19580335 0 .41336262-.261071 1.02252858-.500386 1.34886749-.326339.39160669-.630922.58741004-1.000773.67443375-.261071.06526778-1.218332.13053556-2.219105.13053556zm10.812696 9.81192324c-.087024 0-.152292 0-.174048.1522915l-.348094 4.1336262c-.021756.2393152.065267.3480948.304583.3480948.152291 0 .261071-.0217559.391606-.2610711.130536-.2175593.21756-.3698508.348095-.3698508.10878 0 .239315.0652678.500387.2393152.913748.609166 1.936277.9355049 3.89431.9355049 2.871783 0 4.764549-2.1538368 4.764549-4.80806 0-1.5229149-.348095-2.48017568-1.196576-3.24163313-.891993-.80496931-1.740475-1.34886749-2.784759-1.65345048-1.066041-.30458298-2.306128-.82672523-2.871783-1.41413527-.543898-.54389818-.565654-1.196576-.565654-2.00154531 0-.56565411.674434-1.97978939 2.306129-1.97978939.979016 0 1.631694.30458298 2.175592.91374895.739702.78321338 1.109553 1.63169455 1.348868 2.26261644.065268.15229149.174047.19580334.282827.15229149l.47863-.15229149c.065268-.02175593.10878-.04351186.10878-.13053557l-.348095-3.72026357c-.021756-.13053556-.065268-.36985076-.217559-.36985076-.130536 0-.239315.04351185-.326339.13053556l-.282827.28282706c-.130536.15229149-.282827.19580334-.500386.10877964-.456875-.17404742-1.305356-.43511855-2.893539-.43511855-1.327111 0-2.153837.30458298-3.132853 1.04428451-1.305356.97901673-1.631695 1.87100975-1.631695 3.19812131 0 1.26184379.326339 2.41490794 1.087797 3.08934168 1.109552.9572608 2.501931 1.65345048 3.154609 1.89276568 2.828271 1.0660404 3.176365 1.5881827 3.176365 3.3939247 0 1.7187182-1.675206 2.4149079-2.719491 2.4149079-1.044284 0-2.110324-.4786304-2.741246-1.4794031-.522143-.8484811-.826726-1.783986-.870237-2.4584198 0-.1522914-.065268-.1740474-.152292-.1740474zm16.795576-9.81192324-.065268 6.33097484c1.000773 0 1.958033-.06526778 2.219105-.13053556.36985-.08702371.674433-.28282706 1.000772-.67443375.239315-.32633891.500387-.93550487.500387-1.34886749 0-.15229149.065267-.19580335.174047-.19580335l.58741.06526779c.10878.02175592.195803.04351185.174047.17404741-.065267.36985077-.065267 1.50115899-.065267 2.26261644 0 .97901673.087023 2.02330124.130535 2.48017571.021756.1305356-.065268.1522915-.174047.1740474l-.522142.1087797c-.087024.0217559-.130536-.021756-.174048-.1740475-.087024-.3480948-.304583-.84848112-.435118-1.10955225-.239316-.41336262-.761458-.69618967-1.196576-.76145745-.58741-.08702371-1.261844-.13053557-2.219105-.13053557v1.30535564c0 1.17482003.10878 3.28514503.10878 3.67675173 0 1.1313082.239315 1.5229149.522142 1.6534505.326339.1305355.739701.1958033 1.827498.1958033.369851 0 1.2836-.0217559 1.740474-.0652678.435119-.0435118 1.087796-.2610711 1.65345-.7179456.565655-.4568744 1.783987-1.8057419 2.219105-2.3278842.087024-.0870237.152292-.1087796.217559-.0652678l.369851.2175593c.087024.0435118.10878.1087796.087024.1740474l-.979017 3.285145c-.065268.1958034-.217559.3263389-.47863.3263389-.10878 0-.58741-.0217559-1.97979-.0435118-1.414135 0-3.720263-.0217559-7.484039-.0217559-.804969 0-1.414135.0217559-1.849254.0217559-.456874.0217559-.739701.0435118-.935504.0435118-.152292 0-.195804-.0652677-.195804-.2393152v-.4568744c0-.1305356.065268-.1958034.21756-.1958034h.652677c1.000773 0 1.087797-.1522915 1.087797-.9137489v-7.28823567c0-1.80574197-.043512-4.48172103-.065268-4.6992803-.087024-.69618967-.304583-.84848116-.891993-.84848116h-.848481c-.087024 0-.10878-.06526779-.10878-.21755928v-.52214225c0-.06526778.021756-.15229149.152292-.15229149.47863 0 1.240087.06526778 3.219877.06526778l7.63633-.02175593c.348095 0 .761458-.04351185.870237-.04351185.10878 0 .152292.04351185.174048.10877963.087024.30458299.804969 3.28514503.891993 3.5027043.043512.10877964.043512.15229149-.065268.21755927l-.348095.17404742c-.087023.04351186-.195803.02175593-.261071-.08702371-.10878-.17404742-2.066813-2.13208087-2.567199-2.43666386-.456875-.28282705-1.066041-.56565411-1.653451-.58741003zm17.208938 8.20198459v2.41490795c0 .8484811.065268 2.2626164.087024 2.4584198.065268.6961896.391607.7614574.739702.7614574h.630921c.152292 0 .152292.0652678.152292.1522915v.5438982c0 .1305356 0 .1958033-.152292.1958033-.261071 0-1.109552-.0652677-3.154609-.0652677-2.262616 0-2.93705.0652677-3.176365.0652677-.087024 0-.130536-.0652677-.130536-.2175592v-.5221423c0-.0870237.021756-.1522915.152292-.1522915h.761457c.565654 0 .739701-.2175592.761457-.5003863.021756-.304583.065268-2.0233012.065268-4.0466025v-.93550486c-.348095-.67443374-3.829043-7.02716452-4.372941-7.76686605-.261071-.32633891-.783214-.50038632-1.131308-.50038632h-.326339c-.130536 0-.152292-.06526779-.152292-.15229149v-.60916597c0-.08702371.021756-.13053556.152292-.13053556.195803 0 1.218332.06526778 3.154609.06526778 2.240861 0 3.024074-.06526778 3.241633-.06526778.130536 0 .152292.04351185.152292.15229149v.54389818c0 .10877964-.021756.19580335-.152292.19580335h-.500386c-.304583 0-.522142.21755927-.522142.56565411 0 .39160669 2.588955 5.37371404 3.176365 6.63555783.652678-1.19657601 3.263389-5.78707667 3.263389-6.46151042 0-.36985076-.369851-.73970152-.826725-.73970152h-.58741c-.130536 0-.152292-.06526779-.152292-.19580335v-.56565411c0-.08702371.021756-.13053556.152292-.13053556.217559 0 1.109552.06526778 2.719491.06526778 1.501159 0 1.979789-.06526778 2.175593-.06526778.152291 0 .174047.04351185.174047.17404742v.52214225c0 .13053556-.021756.19580335-.174047.19580335h-.391607c-.261071 0-.913749.13053556-1.240088.52214225-.282827.34809484-3.676752 5.91761223-4.568745 7.59281863z" fill-rule="evenodd"/></svg>